<svg xmlns="http://www.w3.org/2000/svg" width="21.501" height="20.668" viewBox="0 0 21.501 20.668">
  <path id="Trazado_9" data-name="Trazado 9" d="M18.273,18.379a2.275,2.275,0,0,1-3.286,2.046c-1.283-.646-2.548-1.326-3.815-2a.8.8,0,0,0-.83,0c-1.253.67-2.512,1.329-3.771,1.989a2.293,2.293,0,0,1-3.313-1.745,4.285,4.285,0,0,1,.116-1.248c.211-1.256.433-2.511.645-3.767a.584.584,0,0,0-.183-.526q-.955-.937-1.914-1.869c-.446-.435-.911-.853-1.329-1.314A2.144,2.144,0,0,1,.138,7.694a2.132,2.132,0,0,1,1.733-1.5c.881-.155,1.77-.267,2.656-.4.58-.085,1.162-.165,1.742-.252a.657.657,0,0,0,.517-.379q.939-1.9,1.877-3.81A2.214,2.214,0,0,1,10.7,0a2.165,2.165,0,0,1,2.1,1.261c.621,1.227,1.236,2.457,1.822,3.7a1.017,1.017,0,0,0,.892.626q2.083.275,4.159.6a2.283,2.283,0,0,1,1.117,3.894c-.986.963-1.967,1.931-2.964,2.881a.922.922,0,0,0-.3.922c.253,1.383.484,2.769.72,4.155a3.233,3.233,0,0,1,.023.333m-2.3.661a.681.681,0,0,0,.638-.833c-.028-.159-.057-.318-.084-.478-.209-1.215-.416-2.431-.629-3.646a2.283,2.283,0,0,1,.609-2.113c.511-.52,1.042-1.021,1.564-1.53L19.649,8.9a.641.641,0,0,0-.362-1.11c-.371-.05-.74-.111-1.11-.164-1.011-.147-2.021-.3-3.033-.436a2.349,2.349,0,0,1-1.924-1.366c-.62-1.272-1.252-2.539-1.878-3.808a.642.642,0,0,0-1.169,0c-.6,1.22-1.212,2.435-1.8,3.662A2.391,2.391,0,0,1,6.858,7.088a8.857,8.857,0,0,1-1.089.191c-1.191.176-2.382.345-3.573.521a.633.633,0,0,0-.4,1.026,2.166,2.166,0,0,0,.189.2c1.008.983,2.021,1.961,3.024,2.949a2.055,2.055,0,0,1,.648,1.584,11.094,11.094,0,0,1-.184,1.35Q5.2,16.574,4.9,18.239a.645.645,0,0,0,.965.682c1.234-.652,2.473-1.294,3.7-1.951a2.364,2.364,0,0,1,2.373,0c1.23.658,2.468,1.3,3.7,1.949a2.633,2.633,0,0,0,.323.12" transform="translate(0 0)"/>
</svg>
